<?xml version="1.0" standalone="no"?>
<!DOCTYPE svg PUBLIC "-//W3C//DTD SVG 20010904//EN"
 "http://www.w3.org/TR/2001/REC-SVG-20010904/DTD/svg10.dtd">
<svg version="1.0" xmlns="http://www.w3.org/2000/svg"
 width="512.000000pt" height="512.000000pt" viewBox="0 0 512.000000 512.000000"
 preserveAspectRatio="xMidYMid meet">
<metadata>
Created by potrace 1.14, written by Peter Selinger 2001-2017
</metadata>
<g transform="translate(0.000000,512.000000) scale(0.100000,-0.100000)"
fill="#000000" stroke="none">
<path d="M2248 4799 c-498 -64 -1006 -373 -1383 -841 -359 -447 -489 -961
-410 -1628 40 -341 171 -826 299 -1110 228 -505 572 -818 983 -896 124 -23
339 -15 483 19 227 54 342 105 1180 520 719 357 835 428 1026 629 95 101 139
164 199 290 126 262 138 593 34 932 -95 311 -305 672 -633 1091 -343 437 -653
717 -952 860 -128 61 -287 112 -408 130 -111 16 -308 18 -418 4z m526 -1078
c287 -76 504 -285 603 -581 l28 -85 3 -712 3 -713 -211 0 -210 0 0 215 0 215
-425 0 -425 0 0 -215 0 -215 -210 0 -211 0 3 708 3 707 28 90 c100 323 352
545 684 605 76 14 248 4 337 -19z"/>
<path d="M2417 3296 c-111 -46 -177 -107 -231 -211 -39 -75 -46 -136 -46 -381
l0 -224 425 0 425 0 0 208 c0 114 -5 235 -10 270 -20 140 -113 266 -239 326
-58 27 -79 31 -166 34 -88 2 -107 0 -158 -22z m461 -180 c17 -26 32 -52 32
-57 0 -5 -25 -9 -55 -9 l-55 0 0 61 c0 57 1 60 23 57 13 -2 35 -22 55 -52z
m57 -128 c2 -13 6 -41 7 -63 l3 -40 -157 -3 -158 -3 0 66 0 65 150 0 c147 0
150 0 155 -22z m10 -203 l0 -60 -242 -3 -243 -2 0 65 0 65 243 -2 242 -3 0
-60z m3 -167 l3 -58 -331 0 -330 0 0 60 0 60 328 -2 327 -3 3 -57z"/>
</g>
</svg>
